<svg width="24" height="24" viewBox="0 0 24 24" fill="none" xmlns="http://www.w3.org/2000/svg">
<path d="M5.20024 11.5C5.20024 12.4389 4.43913 13.2 3.50024 13.2C2.56136 13.2 1.80024 12.4389 1.80024 11.5C1.80024 10.5611 2.56136 9.80001 3.50024 9.80001C4.43913 9.80001 5.20024 10.5611 5.20024 11.5ZM22.2 11.5C22.2 12.4389 21.4389 13.2 20.5 13.2C19.5611 13.2 18.8 12.4389 18.8 11.5C18.8 10.5611 19.5611 9.8 20.5 9.8C21.4389 9.8 22.2 10.5611 22.2 11.5ZM13.7002 11.5C13.7002 12.4389 12.9391 13.2 12.0002 13.2C11.0614 13.2 10.3002 12.4389 10.3002 11.5C10.3002 10.5611 11.0614 9.80001 12.0002 9.80001C12.9391 9.80001 13.7002 10.5611 13.7002 11.5Z" stroke="#A3A3A3" stroke-width="1.6"/>
</svg>
